<?xml version="1.0" encoding="utf-8"?>
<!-- Generator: Adobe Illustrator 21.0.0, SVG Export Plug-In . SVG Version: 6.00 Build 0)  -->
<svg version="1.1" id="Layer_1" xmlns="http://www.w3.org/2000/svg" xmlns:xlink="http://www.w3.org/1999/xlink" x="0px" y="0px"
	 viewBox="0 0 612 792" style="enable-background:new 0 0 612 792;" xml:space="preserve">
<style type="text/css">
	.st0{fill:#D2FBFF;}
	.st1{fill:#E6FEFF;}
	.st2{fill:#A9F3FF;}
	.st3{display:none;}
	.st4{display:inline;fill:#C1C1C1;}
	.st5{display:none;fill:#E6FEFF;}
	.st6{display:none;opacity:0.7;fill:#57D9F7;}
	.st7{opacity:0.7;fill:#57D9F7;}
	.st8{display:none;fill:#C1C1C1;}
	.st9{display:none;opacity:0.3;fill:#FFFFFF;}
	.st10{display:none;opacity:0.3;fill:#C6C6C6;}
	.st11{display:none;fill:#D2FBFF;}
	.st12{display:none;opacity:0.75;fill:#A9F3FF;}
	.st13{display:none;fill:#A9F3FF;}
	.st14{display:inline;}
	.st15{opacity:0.5;}
</style>
<path class="st0" d="M486.5-600c0-24.5-78.8-44.4-176-44.4s-176,19.9-176,44.4c0,0.3,0,0.7,0.1,1h-0.1l44,437.6h0.1
	c0,0.3-0.1,0.7-0.1,1c0,18.1,59.1,32.8,132,32.8s132-14.7,132-32.8c0-0.3,0-0.7-0.1-1h0.1l44-437.6h-0.1
	C486.4-599.3,486.5-599.7,486.5-600z"/>
<ellipse class="st1" cx="310.5" cy="-600" rx="176" ry="44.4"/>
<ellipse class="st2" cx="310.5" cy="-160.4" rx="132" ry="32.8"/>
<g class="st3">
	<path class="st4" d="M-484.9-703.9c-4.3,0-12.7-2.3-19.8-9c-5.4-5.1-11.8-14.4-11.6-30c0.4-34,24-37.7,31.2-38l0.1,0l59.1-0.8
		l0.1,9.4l-59,0.8c-8.2,0.4-21.8,4.6-22.1,28.7c-0.1,9.8,2.8,17.5,8.6,23c5.5,5.2,11.8,6.5,13.4,6.4l0.7,9.4
		C-484.4-703.9-484.7-703.9-484.9-703.9z"/>
</g>
<path class="st5" d="M-255.5-67.5h-221.2c-6.4,0-11.7-5.3-11.7-11.7v-625.7c0-30.2,24.7-55,55-55h134.6c30.2,0,55,24.7,55,55v625.7
	C-243.8-72.8-249-67.5-255.5-67.5z"/>
<path class="st6" d="M-243.6-604.3v-65.6c-15.1,13.5-38.1,8.4-47.3-12.6c-0.3-0.7-0.4-1.9-1.4-1.9c-0.8,0-1,1.1-1.3,1.8
	c-6,11.1-14.6,17.3-25.9,17.7c-12.3,0.5-21.7-5.8-28.3-17.9c-1.1-2-1.1-2-2.1-0.1c-3,5.8-7,10.3-12.2,13.5
	c-14.9,9.1-32.9,3.4-41.8-13.3c-1.3-2.5-1.5-2.5-2.8-0.1c-0.2,0.3-0.4,0.7-0.6,1c-6.1,9.6-14.2,14.8-24.4,15.2
	c-11.8,0.5-21-5.3-27.7-16.6c-1.3-2.1-2-2.1-3.3,0c-1.8,3.1-3.8,5.9-6.3,8.3c-5.6,5.5-12.5,8.3-19.4,8.5V-562c0.1,0,0.3,0,0.4,0
	v475.5c0,10.9,7.7,19.8,17.1,19.8h210.4c9.4,0,17.1-8.9,17.1-19.8v-515.1C-243.5-602.5-243.6-603.4-243.6-604.3z"/>
<path class="st7" d="M409.7-503.2c-0.4-0.4-0.6-1.1-1.8-1.1c-1.1,0-1.3,0.6-1.7,1c-7.9,6.1-19,9.5-33.8,9.7
	c-16.1,0.2-28.3-3.2-36.9-9.8c-1.4-1.1-1.5-1.1-2.8-0.1c-3.9,3.2-9.2,5.7-15.9,7.4c-19.4,5-42.8,1.8-54.4-7.3
	c-1.7-1.3-1.9-1.3-3.7-0.1c-0.3,0.2-0.5,0.4-0.8,0.6c-7.9,5.2-18.5,8.1-31.8,8.3c-15.4,0.3-27.4-2.9-36.1-9.1
	c-1.7-1.2-2.6-1.2-4.3,0c-2.3,1.7-5,3.2-8.2,4.6c-7.3,3-16.2,4.5-25.2,4.7l31,328l0,0v0c0,17.4,56.9,31.6,127.1,31.6
	s127.1-14.1,127.1-31.6c2.4-37.8,33.6-330,33.6-330C451.6-488.9,421.7-491.7,409.7-503.2z"/>
<path class="st8" d="M-301.3-759.4h-132.1v-37.3c0-3.3,2.7-6,6-6h120.1c3.3,0,6,2.7,6,6V-759.4z"/>
<rect x="-477.7" y="-639.6" class="st9" width="30.1" height="3.7"/>
<rect x="-477.7" y="-623.2" class="st9" width="18.4" height="1.9"/>
<rect x="-477.7" y="-608.6" class="st9" width="18.4" height="1.9"/>
<rect x="-477.7" y="-593.9" class="st9" width="18.4" height="1.9"/>
<rect x="-477.7" y="-579.3" class="st9" width="18.4" height="1.9"/>
<rect x="-477.7" y="-564.6" class="st9" width="30.1" height="3.7"/>
<rect x="-477.7" y="-548.2" class="st9" width="18.4" height="1.9"/>
<rect x="-477.7" y="-533.6" class="st9" width="18.4" height="1.9"/>
<rect x="-477.7" y="-518.9" class="st9" width="18.4" height="1.9"/>
<rect x="-477.7" y="-504.3" class="st9" width="18.4" height="1.9"/>
<rect x="-477.7" y="-489.6" class="st9" width="30.1" height="3.7"/>
<rect x="-477.7" y="-473.2" class="st9" width="18.4" height="1.9"/>
<rect x="-477.7" y="-458.6" class="st9" width="18.4" height="1.9"/>
<rect x="-477.7" y="-443.9" class="st9" width="18.4" height="1.9"/>
<rect x="-477.7" y="-429.3" class="st9" width="18.4" height="1.9"/>
<rect x="-477.7" y="-414.7" class="st9" width="30.1" height="3.7"/>
<rect x="-477.7" y="-398.2" class="st9" width="18.4" height="1.9"/>
<rect x="-477.7" y="-383.6" class="st9" width="18.4" height="1.9"/>
<rect x="-477.7" y="-369" class="st9" width="18.4" height="1.9"/>
<rect x="-477.7" y="-354.3" class="st9" width="18.4" height="1.9"/>
<rect x="-477.7" y="-339.7" class="st9" width="30.1" height="3.7"/>
<rect x="-477.7" y="-323.3" class="st9" width="18.4" height="1.9"/>
<rect x="-477.7" y="-308.6" class="st9" width="18.4" height="1.9"/>
<rect x="-477.7" y="-294" class="st9" width="18.4" height="1.9"/>
<rect x="-477.7" y="-279.3" class="st9" width="18.4" height="1.9"/>
<rect x="-477.7" y="-264.7" class="st9" width="30.1" height="3.7"/>
<rect x="-477.7" y="-248.3" class="st9" width="18.4" height="1.9"/>
<rect x="-477.7" y="-233.6" class="st9" width="18.4" height="1.9"/>
<rect x="-477.7" y="-219" class="st9" width="18.4" height="1.9"/>
<rect x="-477.7" y="-204.3" class="st9" width="18.4" height="1.9"/>
<g class="st3">
	<path class="st4" d="M-472.2,127.2c-4.3,0-12.7-2.3-19.8-9c-5.4-5.1-11.8-14.4-11.6-30c0.4-34,24-37.7,31.2-38l0.1,0l59.1-0.8
		l0.1,9.4l-59,0.8c-8.2,0.4-21.8,4.6-22.1,28.7c-0.1,9.8,2.8,17.5,8.6,23c5.5,5.2,11.8,6.5,13.4,6.4l0.7,9.4
		C-471.6,127.2-471.9,127.2-472.2,127.2z"/>
</g>
<path class="st5" d="M-242.7,763.6h-221.2c-6.4,0-11.7-5.3-11.7-11.7V126.2c0-30.2,24.7-55,55-55H-286c30.2,0,55,24.7,55,55v625.7
	C-231,758.3-236.3,763.6-242.7,763.6z"/>
<path class="st8" d="M-288.5,71.7h-132.1V34.4c0-3.3,2.7-6,6-6h120.1c3.3,0,6,2.7,6,6V71.7z"/>
<rect x="-464.9" y="191.5" class="st10" width="30.1" height="3.7"/>
<rect x="-464.9" y="207.9" class="st10" width="18.4" height="1.9"/>
<rect x="-464.9" y="222.5" class="st10" width="18.4" height="1.9"/>
<rect x="-464.9" y="237.2" class="st10" width="18.4" height="1.9"/>
<rect x="-464.9" y="251.8" class="st10" width="18.4" height="1.9"/>
<rect x="-464.9" y="266.5" class="st10" width="30.1" height="3.7"/>
<rect x="-464.9" y="282.9" class="st10" width="18.4" height="1.9"/>
<rect x="-464.9" y="297.5" class="st10" width="18.4" height="1.9"/>
<rect x="-464.9" y="312.2" class="st10" width="18.4" height="1.9"/>
<rect x="-464.9" y="326.8" class="st10" width="18.4" height="1.9"/>
<rect x="-464.9" y="341.5" class="st10" width="30.1" height="3.7"/>
<rect x="-464.9" y="357.9" class="st10" width="18.4" height="1.9"/>
<rect x="-464.9" y="372.5" class="st10" width="18.4" height="1.9"/>
<rect x="-464.9" y="387.2" class="st10" width="18.4" height="1.9"/>
<rect x="-464.9" y="401.8" class="st10" width="18.4" height="1.9"/>
<rect x="-464.9" y="416.4" class="st10" width="30.1" height="3.7"/>
<rect x="-464.9" y="432.9" class="st10" width="18.4" height="1.9"/>
<rect x="-464.9" y="447.5" class="st10" width="18.4" height="1.9"/>
<rect x="-464.9" y="462.1" class="st10" width="18.4" height="1.9"/>
<rect x="-464.9" y="476.8" class="st10" width="18.4" height="1.9"/>
<rect x="-464.9" y="491.4" class="st10" width="30.1" height="3.7"/>
<rect x="-464.9" y="507.8" class="st10" width="18.4" height="1.9"/>
<rect x="-464.9" y="522.5" class="st10" width="18.4" height="1.9"/>
<rect x="-464.9" y="537.1" class="st10" width="18.4" height="1.9"/>
<rect x="-464.9" y="551.8" class="st10" width="18.4" height="1.9"/>
<rect x="-464.9" y="566.4" class="st10" width="30.1" height="3.7"/>
<rect x="-464.9" y="582.8" class="st10" width="18.4" height="1.9"/>
<rect x="-464.9" y="597.5" class="st10" width="18.4" height="1.9"/>
<rect x="-464.9" y="612.1" class="st10" width="18.4" height="1.9"/>
<rect x="-464.9" y="626.8" class="st10" width="18.4" height="1.9"/>
<line class="st2" x1="134.5" y1="-600" x2="178.5" y2="-160.4"/>
<line class="st2" x1="442.5" y1="-160.4" x2="486.5" y2="-600"/>
<path class="st11" d="M486.5,242.2c0-24.5-78.8-44.4-176-44.4s-176,19.9-176,44.4c0,0.3,0,0.7,0.1,1h-0.1l44,437.6h0.1
	c0,0.3-0.1,0.7-0.1,1c0,18.1,59.1,32.8,132,32.8s132-14.7,132-32.8c0-0.3,0-0.7-0.1-1h0.1l44-437.6h-0.1
	C486.4,242.9,486.5,242.6,486.5,242.2z"/>
<ellipse class="st5" cx="310.5" cy="242.2" rx="176" ry="44.4"/>
<ellipse class="st12" cx="310.5" cy="681.8" rx="132" ry="32.8"/>
<line class="st13" x1="134.5" y1="242.2" x2="178.5" y2="681.8"/>
<line class="st13" x1="442.5" y1="681.8" x2="486.5" y2="242.2"/>
<g class="st3">
	<g class="st14">
		<path class="st1" d="M146.6,294c3.3,31.9,6.6,63.9,9.9,95.8c5.3,50.9,10.5,101.8,15.8,152.7c1.2,11.7,2.4,23.3,3.6,35
			c0.3,3.2,5.3,3.2,5,0c-3.3-31.9-6.6-63.9-9.9-95.8c-5.3-50.9-10.5-101.8-15.8-152.7c-1.2-11.7-2.4-23.3-3.6-35
			C151.3,290.9,146.3,290.8,146.6,294L146.6,294z"/>
	</g>
</g>
<g class="st15">
	<g>
		<path class="st1" d="M151.8-515c3.3,31.1,6.6,62.3,9.9,93.4c5.3,49.7,10.5,99.4,15.8,149c1.2,11.4,2.4,22.9,3.6,34.3
			c0.4,3.4,5.7,3.4,5.3,0c-3.3-31.1-6.6-62.3-9.9-93.4c-5.3-49.7-10.5-99.4-15.8-149c-1.2-11.4-2.4-22.9-3.6-34.3
			C156.8-518.4,151.4-518.4,151.8-515L151.8-515z"/>
	</g>
</g>
</svg>
