<svg xmlns="http://www.w3.org/2000/svg" xmlns:xlink="http://www.w3.org/1999/xlink" viewBox="0 0 100 125" version="1.1" x="0px" y="0px"><title>124124</title><desc>Created with Sketch.</desc><g stroke="none" stroke-width="1" fill="none" fill-rule="evenodd"><g fill="#FFFFFF"><path d="M20,31 C20,29.3431458 21.3373097,28 22.9959374,28 L77.0040626,28 C78.6586731,28 80,29.3465171 80,31 C80,32.6568542 78.6626903,34 77.0040626,34 L22.9959374,34 C21.3413269,34 20,32.6534829 20,31 Z M20,49 C20,47.3431458 21.3373097,46 22.9959374,46 L77.0040626,46 C78.6586731,46 80,47.3465171 80,49 C80,50.6568542 78.6626903,52 77.0040626,52 L22.9959374,52 C21.3413269,52 20,50.6534829 20,49 Z M20,67 C20,65.3431458 21.3373097,64 22.9959374,64 L77.0040626,64 C78.6586731,64 80,65.3465171 80,67 C80,68.6568542 78.6626903,70 77.0040626,70 L22.9959374,70 C21.3413269,70 20,68.6534829 20,67 Z"/></g></g><text x="0" y="115" fill="#000000" font-size="5px" font-weight="bold" font-family="'Helvetica Neue', Helvetica, Arial-Unicode, Arial, Sans-serif">Created by Nikita Cherednikov</text><text x="0" y="120" fill="#000000" font-size="5px" font-weight="bold" font-family="'Helvetica Neue', Helvetica, Arial-Unicode, Arial, Sans-serif">from the Noun Project</text></svg>