<svg xmlns="http://www.w3.org/2000/svg" width="9.841" height="17.342" viewBox="0 0 9.841 17.342">
  <path id="Path_42" data-name="Path 42" d="M4941.858-2323.31a1.986,1.986,0,0,1-.6.873q-3.176,3.171-6.345,6.351c-.046.046-.09.094-.185.193a1,1,0,0,1,.188.118q3.207,3.205,6.409,6.414a1.367,1.367,0,0,1,.424.691,1.133,1.133,0,0,1-.484,1.186,1.121,1.121,0,0,1-1.293-.037,1.747,1.747,0,0,1-.2-.177q-3.675-3.677-7.347-7.356a1.131,1.131,0,0,1-.254-1.433,2.371,2.371,0,0,1,.368-.437q3.639-3.649,7.28-7.295a1.7,1.7,0,0,1,.673-.42h.466a5.091,5.091,0,0,1,.518.291,1.227,1.227,0,0,1,.38.644Z" transform="translate(-4932.018 2324.64)" fill="#919191"/>
</svg>
