<svg xmlns="http://www.w3.org/2000/svg" width="21.77" height="25.966" viewBox="0 0 21.77 25.966">
  <path id="Path_337" data-name="Path 337" d="M-2743.576,5494.347c-.03-.086-.064-.171-.09-.259a2.443,2.443,0,0,0-2.375-1.8q-8.391,0-16.782,0a2.458,2.458,0,0,0-2.522,2.532c0,6.636,0,15.536,0,22.173h.033a1.256,1.256,0,0,0,.423.848,1.261,1.261,0,0,0,1.78-.113l8.605-9.77,8.692,9.868a1.259,1.259,0,0,0,.947.427,1.256,1.256,0,0,0,.833-.314,1.26,1.26,0,0,0,.427-.946h.03Zm-9.982,10.875a1.261,1.261,0,0,0-.946-.428,1.26,1.26,0,0,0-.946.428l-7.85,8.913c0-6.159,0-13.532,0-19.225,0-.439.126-.568.56-.568h16.583c.4,0,.535.127.535.509,0,3.4,0,13.689,0,19.381Z" transform="translate(2765.345 -5492.292)" fill="#404040"/>
</svg>
