<svg xmlns="http://www.w3.org/2000/svg" width="22.673" height="27.987" viewBox="0 0 22.673 27.987">
  <path id="Path_39" data-name="Path 39" d="M4637.058,1181.4l-.057,0a.764.764,0,0,1-.689-.457c-.022-.044-.046-.087-.07-.13v-25.48a1.593,1.593,0,0,1,.741-.721,8.53,8.53,0,0,1,3.037-1.013c.337-.053.688-.093,1.026-.132l.448-.053h1.474l.424.06c.323.045.656.092.978.15a19.368,19.368,0,0,1,3.743,1.212l.449.179a13.078,13.078,0,0,0,3.178.959,12.008,12.008,0,0,0,1.507.1,9.983,9.983,0,0,0,3.387-.576,3.865,3.865,0,0,0,.951-.547.909.909,0,0,1,.535-.205.8.8,0,0,1,.347.086.706.706,0,0,1,.449.7q0,3.507,0,7.014,0,4.418,0,8.836a.836.836,0,0,1-.437.72,6.95,6.95,0,0,1-2.439,1.033,12.787,12.787,0,0,1-7.873-.616c-1.14-.457-2.433-.976-3.75-1.357a8.754,8.754,0,0,0-2.433-.34,11.307,11.307,0,0,0-3.426.569.961.961,0,0,0-.726,1.01c.015,2.729.015,5.44,0,8.057a1.318,1.318,0,0,1-.153.595A.657.657,0,0,1,4637.058,1181.4Zm5.1-12.153a12.288,12.288,0,0,1,1.943.155,19.163,19.163,0,0,1,3.993,1.252l.331.132a12.481,12.481,0,0,0,3.863,1.073c.3.019.6.028.882.028a10.273,10.273,0,0,0,3.459-.554.947.947,0,0,0,.689-.985c-.007-3.336-.007-6.729-.006-10.01v-3.364l-.664.178-.121.033-.191.051a13.88,13.88,0,0,1-3.348.428,12.3,12.3,0,0,1-1.944-.154,19.185,19.185,0,0,1-3.993-1.253l-.329-.131a12.49,12.49,0,0,0-3.865-1.074c-.3-.019-.6-.028-.881-.028a10.276,10.276,0,0,0-3.459.553.946.946,0,0,0-.689.985c.007,3.337.007,6.729.006,10.01v3.233l.574-.051.035,0a.839.839,0,0,0,.157-.021c.042-.01.085-.022.128-.034l.083-.022A13.88,13.88,0,0,1,4642.163,1169.251Z" transform="translate(-4636.242 -1153.417)" fill="#404040"/>
</svg>
