<svg xmlns="http://www.w3.org/2000/svg" version="1.1" xmlns:xlink="http://www.w3.org/1999/xlink" width="31" height="31" x="0" y="0" viewBox="0 0 31 31" style="enable-background:new 0 0 20 20" xml:space="preserve" class=""><g transform="matrix(0.31000000000000044,0,0,0.31000000000000044,-0.69999991420000356,-3.499999190734869)"><g data-name="Layer 35"><path d="M79.96 11.713H20.04A17.059 17.059 0 0 0 3 28.753v42.494a17.059 17.059 0 0 0 17.04 17.04h59.92A17.059 17.059 0 0 0 97 71.247V28.753a17.059 17.059 0 0 0-17.04-17.04zm-59.92 4h59.92A13.052 13.052 0 0 1 93 28.663H7.005a13.052 13.052 0 0 1 13.035-12.95zM7 32.663h86v4.45H7zm72.96 51.624H20.04A13.055 13.055 0 0 1 7 71.247V41.113h86v30.134a13.055 13.055 0 0 1-13.04 13.04z" fill="#000000" opacity="1" data-original="#000000" class=""></path><path d="M30.305 58.981H19.8a2 2 0 1 0 0 4h10.5a2 2 0 0 0 0-4zM30.305 68.292H19.8a2 2 0 0 0 0 4h10.5a2 2 0 1 0 0-4z" fill="#000000" opacity="1" data-original="#000000" class=""></path></g></g></svg>