<svg width="42" height="24" viewBox="0 0 42 24" fill="none" xmlns="http://www.w3.org/2000/svg">
<path d="M17.645 2.84001L12.255 7.04001C11.7755 7.45661 11.3842 7.96499 11.1043 8.53518C10.8243 9.10538 10.6614 9.72584 10.625 10.36V17.77C10.6263 18.8871 11.07 19.9582 11.8589 20.749C12.6479 21.5398 13.7179 21.986 14.835 21.99H26.415C27.5305 21.9866 28.5993 21.5419 29.3881 20.7531C30.1769 19.9644 30.6216 18.8955 30.625 17.78V10.5C30.5873 9.83009 30.4072 9.1759 30.0968 8.58101C29.7864 7.98613 29.3529 7.46421 28.825 7.05001L22.645 2.71701C21.8935 2.23893 21.0167 1.99534 20.1263 2.01724C19.2359 2.03915 18.3721 2.32556 17.645 2.84001Z" stroke="#71717A" stroke-width="1.5" stroke-linecap="round" stroke-linejoin="round"/>
<path d="M20.625 17.99V14.99" stroke="#71717A" stroke-width="1.5" stroke-linecap="round" stroke-linejoin="round"/>
</svg>
