<svg xmlns="http://www.w3.org/2000/svg" width="32.122" height="25.011" viewBox="0 0 32.122 25.011">
  <path id="Path_26" data-name="Path 26" d="M-205.363,3087.5q-5.936,0-11.873,0a4.136,4.136,0,0,1-4.132-2.9,3.874,3.874,0,0,1-.194-1.123c-.018-2.577-.012-5.154-.007-7.731a1.09,1.09,0,0,1,.1-.432q2.318-5.127,4.647-10.248a4.057,4.057,0,0,1,3.265-2.511,16.7,16.7,0,0,1,2.259-.044q6.563,0,13.126,0a4,4,0,0,1,3.868,2.467c1.612,3.476,3.173,6.976,4.745,10.47a1.45,1.45,0,0,1,.087.577c.006,2.368-.042,4.737.017,7.1a4.242,4.242,0,0,1-4.386,4.375C-197.68,3087.478-201.522,3087.5-205.363,3087.5Zm13.543-12.654c-.068-.165-.115-.293-.171-.416-1.295-2.858-2.6-5.712-3.882-8.575a2.4,2.4,0,0,0-2.4-1.545q-7.278.018-14.556,0a2.432,2.432,0,0,0-2.418,1.577c-.977,2.176-1.969,4.345-2.954,6.517-.362.8-.721,1.6-1.1,2.442h9.093c.757,0,1.08.315,1.1,1.062a3.661,3.661,0,0,0,.061.481,3.576,3.576,0,0,0,3.769,2.91A3.6,3.6,0,0,0-202,3075.87a.922.922,0,0,1,1.065-1.026h9.116Zm-27.979,1.8c-.008.111-.017.178-.017.245,0,2.136,0,4.271,0,6.407a2.655,2.655,0,0,0,.091.686,2.328,2.328,0,0,0,2.326,1.729q11.855,0,23.71,0a2.315,2.315,0,0,0,.517-.047,2.367,2.367,0,0,0,1.875-2.4q.006-3.151,0-6.3c0-.1-.013-.2-.02-.3-.076-.009-.121-.018-.167-.018-2.866,0-5.733,0-8.6-.007-.236,0-.286.106-.325.3a5.338,5.338,0,0,1-5.16,4.164,5.361,5.361,0,0,1-5.2-4.125c-.059-.284-.173-.34-.434-.338-1.4.012-2.808.005-4.213.005Z" transform="translate(221.574 -3062.493)" fill="#000"/>
</svg>
