<svg xmlns="http://www.w3.org/2000/svg" version="1.1" xmlns:xlink="http://www.w3.org/1999/xlink" width="512" height="512" x="0" y="0" viewBox="0 0 412.28 412" style="enable-background:new 0 0 512 512" xml:space="preserve" class=""><g><path d="m409.777 191.703-40.129-87.976a54.206 54.206 0 0 0-49.203-31.637h-25.554c-5.52 0-10 4.476-10 10 0 5.523 4.48 10 10 10h25.558a34.161 34.161 0 0 1 31 19.937l34.797 76.297h-89.02a9.999 9.999 0 0 0-9.078 5.813l-17.242 37.351a34.17 34.17 0 0 1-30.937 19.801h-69.516a34.181 34.181 0 0 1-30.937-19.8l-17.239-37.352a10.004 10.004 0 0 0-9.082-5.813H27.301l42.156-78.304a34.028 34.028 0 0 1 30-17.926h17.926c5.523 0 10-4.477 10-10s-4.477-10-10-10H99.46a53.992 53.992 0 0 0-47.613 28.445L3.102 191.082a9.969 9.969 0 0 0-3.086 7.762 7.69 7.69 0 0 0-.016.52v92.663c.047 42.016 34.098 76.067 76.113 76.114h260.051c42.02-.047 76.07-34.098 76.117-76.118v-92.66c0-.172 0-.343-.015-.52.007-.171.015-.347.015-.523a9.96 9.96 0 0 0-2.504-6.617zm-17.5 100.32c-.03 30.977-25.136 56.082-56.113 56.118H76.114c-30.977-.036-56.079-25.137-56.114-56.118v-83.699h86.8l14.56 31.543a54.235 54.235 0 0 0 49.1 31.414h69.513a54.235 54.235 0 0 0 49.101-31.414l14.559-31.543h88.656v83.7zm0 0" fill="#000000" opacity="1" data-original="#000000" class=""></path><path d="m145.074 122.559 54.778 44.308a9.991 9.991 0 0 0 12.636-.047l53.918-44.308c4.266-3.508 4.883-9.809 1.375-14.078-3.508-4.266-9.808-4.883-14.078-1.375l-37.562 30.875V10.14c0-5.524-4.477-10-10-10s-10 4.476-10 10v128l-38.489-31.133c-4.297-3.422-10.547-2.738-14.004 1.531-3.453 4.273-2.816 10.531 1.426 14.016zm0 0" fill="#000000" opacity="1" data-original="#000000" class=""></path></g></svg>