<svg width="16" height="22" viewBox="0 0 16 22" fill="none" xmlns="http://www.w3.org/2000/svg">
<path fill-rule="evenodd" clip-rule="evenodd" d="M10.7808 18.7005C13.0905 15.7551 16 11.4759 16 8.6087C16 3.85424 12.4183 0 8 0C3.58172 0 0 3.85424 0 8.6087C0 11.4759 2.90945 15.7551 5.21921 18.7005C6.42425 20.2371 7.02677 21.0055 8 21.0055C8.97323 21.0055 9.57575 20.2371 10.7808 18.7005ZM8 12C6.34315 12 5 10.6569 5 9C5 7.34315 6.34315 6 8 6C9.65685 6 11 7.34315 11 9C11 10.6569 9.65685 12 8 12Z" fill="#000"/>
</svg>
