<svg xmlns="http://www.w3.org/2000/svg" width="23.768" height="29.843" viewBox="0 0 23.768 29.843">
  <path id="Path_1" data-name="Path 1" d="M5430.1,1096.317a11.879,11.879,0,0,0-23.145,5.323,17.513,17.513,0,0,0,2.482,5.793,35.573,35.573,0,0,0,5.54,6.678c.66.635,1.347,1.252,2.012,1.848.3.267.606.543.906.816l.52.473.565-.418.1-.074c.065-.047.121-.088.182-.137a43.6,43.6,0,0,0,6.159-6.071,24.939,24.939,0,0,0,4.073-6.558A11.993,11.993,0,0,0,5430.1,1096.317Zm-2.194,7.031a23.286,23.286,0,0,1-3.806,6.11,41.734,41.734,0,0,1-5.59,5.564l-.378-.339c-.654-.586-1.33-1.192-1.967-1.806a33.9,33.9,0,0,1-5.278-6.356,15.868,15.868,0,0,1-2.256-5.233,10.126,10.126,0,0,1,7.661-11.914,10.527,10.527,0,0,1,2.3-.256,10.153,10.153,0,0,1,9.313,14.23Zm-9.3-11.4h-.018a7.367,7.367,0,0,0-7.341,7.331,7.335,7.335,0,0,0,7.315,7.341h.022a7.336,7.336,0,0,0,.021-14.672Zm3.95,11.318a5.588,5.588,0,0,1-3.972,1.641h-.016a5.6,5.6,0,0,1-3.983-1.669,5.536,5.536,0,0,1-1.625-3.951,5.651,5.651,0,0,1,5.628-5.626h.014a5.623,5.623,0,0,1,3.954,9.6Z" transform="translate(-5406.709 -1087.405)" fill="#000"/>
</svg>
