<svg xmlns="http://www.w3.org/2000/svg" width="29.651" height="29.656" viewBox="0 0 29.651 29.656">
  <path id="Path_25" data-name="Path 25" d="M312.758,4233.789l-10.532,0a4.255,4.255,0,0,1-4.2-4.19c0-6.935,0-14.086,0-21.256a4.257,4.257,0,0,1,4.2-4.193l4.275,0h6.356c1.048,0,2.114,0,3.145.007s2.1.007,3.149.007c1.639,0,2.986-.009,4.238-.029h.058a4.462,4.462,0,0,1,4.165,3.439,4.284,4.284,0,0,1,.059.785c0,7.052,0,14.191,0,21.219a4.274,4.274,0,0,1-4.219,4.211Zm6.313-1.874h4.289c1.8,0,2.437-.635,2.437-2.425q0-10.521,0-21.041c0-1.792-.637-2.427-2.435-2.427h-21.01a2.619,2.619,0,0,0-1.909.541,2.588,2.588,0,0,0-.546,1.9q0,10.5,0,21a2.038,2.038,0,0,0,2.453,2.445h16.721Zm-6.2-5.838a1.038,1.038,0,0,1-.287-.042.954.954,0,0,1-.668-1c-.005-.852,0-1.719,0-2.558q0-.544,0-1.089V4219.9H310.8l-1.212,0-1.209,0c-.632,0-1.15,0-1.632-.007a1.046,1.046,0,0,1-.847-.394.905.905,0,0,1-.127-.812.971.971,0,0,1,1.009-.662q.736,0,1.472,0h3.651v-1.088q0-.6,0-1.2c0-.943,0-1.918,0-2.876a.934.934,0,0,1,1.657-.658,1.069,1.069,0,0,1,.215.745q0,1.452,0,2.9v2.126l.586.029.137.008c.1.006.2.012.3.012h2.406q.839,0,1.677,0a.938.938,0,0,1,1.041.757.926.926,0,0,1-.156.737.788.788,0,0,1-.552.338c-.363.036-.734.041-1.05.041H317.3c-.385,0-.77,0-1.157,0h-2.311l-.026.589c0,.051,0,.1-.007.145-.006.1-.011.2-.011.3q0,.681,0,1.361c0,.9,0,1.837-.005,2.754A.949.949,0,0,1,312.866,4226.077Z" transform="translate(-298.021 -4204.133)" fill="#000"/>
</svg>
