<svg xmlns="http://www.w3.org/2000/svg" version="1.1" xmlns:xlink="http://www.w3.org/1999/xlink" width="512" height="512" x="0" y="0" viewBox="0 0 512 512" style="enable-background:new 0 0 512 512" xml:space="preserve" class=""><g><path d="M437 0H75C33.645 0 0 33.645 0 75v362c0 41.355 33.645 75 75 75h362c41.355 0 75-33.645 75-75V75c0-41.355-33.645-75-75-75zm45 437c0 24.813-20.187 45-45 45H75c-24.813 0-45-20.187-45-45V75c0-24.813 20.187-45 45-45h362c24.813 0 45 20.187 45 45z" fill="#000" opacity="1" data-original="#000" class=""></path><path d="M271 151h-30v90h-90v30h90v90h30v-90h90v-30h-90z" fill="#000" opacity="1" data-original="#000" class=""></path></g></svg>