<svg xmlns="http://www.w3.org/2000/svg" version="1.1" xmlns:xlink="http://www.w3.org/1999/xlink" width="512" height="512" x="0" y="0" viewBox="0 0 22 22" style="enable-background:new 0 0 512 512" xml:space="preserve" class=""><g><path d="M15 0H7a7.008 7.008 0 0 0-7 7v8a7.008 7.008 0 0 0 7 7h8a7.008 7.008 0 0 0 7-7V7a7.008 7.008 0 0 0-7-7zm5 15a5.006 5.006 0 0 1-5 5H7a5.006 5.006 0 0 1-5-5V7a5.006 5.006 0 0 1 5-5h8a5.006 5.006 0 0 1 5 5z" fill="#000" opacity="1" data-original="#000" class=""></path><path d="M17 10h-5V5a1 1 0 0 0-2 0v5H5a1 1 0 0 0 0 2h5v5a1 1 0 0 0 2 0v-5h5a1 1 0 0 0 0-2z" fill="#000" opacity="1" data-original="#000" class=""></path></g></svg>