<svg xmlns="http://www.w3.org/2000/svg" version="1.1" xmlns:xlink="http://www.w3.org/1999/xlink" width="512" height="512" x="0" y="0" viewBox="0 0 512 512" style="enable-background:new 0 0 512 512" xml:space="preserve" class=""><g><path fill="#faf7f5" d="M459.5 156h-407C29.028 156 10 175.028 10 198.5v115c0 23.472 19.028 42.5 42.5 42.5h407c23.472 0 42.5-19.028 42.5-42.5v-115c0-23.472-19.028-42.5-42.5-42.5z" opacity="1" data-original="#faf7f5" class=""></path><path fill="#a0e5a5" d="M334.775 396h-12.5c-6.904 0-12.5-5.596-12.5-12.5v-255c0-6.904 5.596-12.5 12.5-12.5h12.021c10.845 0 20.081-8.433 20.466-19.271.404-11.378-8.7-20.729-19.987-20.729h-20a44.737 44.737 0 0 0-25 7.604 44.737 44.737 0 0 0-25-7.604h-19.521c-10.845 0-20.081 8.433-20.466 19.271-.405 11.378 8.699 20.729 19.987 20.729h12.5c6.904 0 12.5 5.596 12.5 12.5v255c0 6.904-5.596 12.5-12.5 12.5h-12.021c-10.845 0-20.081 8.433-20.466 19.271-.405 11.378 8.699 20.729 19.987 20.729h20a44.737 44.737 0 0 0 25-7.604 44.737 44.737 0 0 0 25 7.604h19.521c10.845 0 20.081-8.433 20.466-19.271.404-11.378-8.7-20.729-19.987-20.729z" opacity="1" data-original="#a0e5a5"></path><circle cx="391.86" cy="356" r="10" fill="#000" opacity="1" data-original="#000" class=""></circle><path d="M507.759 178.11c-2.643-6.264-6.435-12.035-11.129-16.73-9.778-9.779-23.317-15.38-37.131-15.38H319.776v-17.5a2.5 2.5 0 0 1 2.5-2.5h12.02c16.51 0 29.88-12.7 30.46-28.92.29-8.22-2.69-16-8.39-21.91-5.71-5.91-13.38-9.17-21.591-9.17h-20c-8.76 0-17.29 2.07-25 6.02a54.709 54.709 0 0 0-25-6.02h-19.52c-16.51 0-29.891 12.7-30.461 28.92-.29 8.22 2.69 16 8.39 21.91 5.71 5.91 13.37 9.17 21.59 9.17h12.5a2.5 2.5 0 0 1 2.5 2.5V146H52.49c-13.643 0-27.5 5.76-37.12 15.379C5.665 171.085 0 184.816 0 198.5v115c0 13.82 5.613 27.362 15.37 37.12C24.805 360.056 38.769 366 52.491 366h207.284v17.5a2.5 2.5 0 0 1-2.5 2.5h-12.02c-16.51 0-29.891 12.7-30.461 28.92-.29 8.22 2.69 16 8.39 21.91 5.71 5.91 13.37 9.17 21.59 9.17h20c8.76 0 17.29-2.07 25-6.02a54.709 54.709 0 0 0 25 6.02h19.521c16.51 0 29.88-12.7 30.46-28.92.29-8.22-2.69-16-8.39-21.91-5.71-5.91-13.38-9.17-21.591-9.17h-12.5a2.5 2.5 0 0 1-2.5-2.5V366h27.15c5.52 0 10-4.49 10-10s-4.48-10-10-10h-27.15V166h139.723c8.67 0 16.83 3.38 22.98 9.52 6.14 6.15 9.52 14.31 9.52 22.98v115c0 8.67-3.38 16.83-9.52 22.98-6.15 6.13-14.31 9.52-22.98 9.52h-22.571c-5.51 0-10 4.49-10 10s4.49 10 10 10h22.571c13.798 0 27.389-5.639 37.13-15.379C506.367 340.884 512 327.244 512 313.5v-115c0-6.892-1.505-13.905-4.241-20.39zM52.491 346c-8.66 0-16.83-3.39-22.98-9.52-6.13-6.15-9.51-14.31-9.52-22.98v-115c.01-8.67 3.39-16.83 9.52-22.98 6.15-6.14 14.321-9.52 22.98-9.52h207.284v180zm247.285-217.5v255c0 12.41 10.09 22.5 22.5 22.5h12.5c2.74 0 5.29 1.09 7.2 3.06a9.909 9.909 0 0 1 2.79 7.31c-.19 5.31-4.88 9.63-10.47 9.63h-19.521c-6.95 0-13.67-2.04-19.43-5.91-1.69-1.13-3.63-1.69-5.57-1.69s-3.89.56-5.57 1.69a34.717 34.717 0 0 1-19.431 5.91h-20c-2.74 0-5.29-1.09-7.2-3.06a9.909 9.909 0 0 1-2.79-7.31c.18-5.31 4.88-9.63 10.47-9.63h12.02c12.411 0 22.5-10.09 22.5-22.5v-255c0-12.41-10.09-22.5-22.5-22.5h-12.5c-2.74 0-5.29-1.09-7.2-3.06a9.909 9.909 0 0 1-2.79-7.31c.18-5.31 4.88-9.63 10.47-9.63h19.52c6.95 0 13.67 2.04 19.431 5.91a10 10 0 0 0 11.14 0 34.716 34.716 0 0 1 19.43-5.91h20c2.74 0 5.29 1.09 7.2 3.06a9.909 9.909 0 0 1 2.79 7.31c-.19 5.31-4.88 9.63-10.47 9.63h-12.02c-12.409 0-22.499 10.09-22.499 22.5z" fill="#000" opacity="1" data-original="#000" class=""></path><path d="M85.012 186c-24.855 0-45.077 20.222-45.077 45.077s20.222 45.077 45.077 45.077c4.323 0 8.5-.625 12.461-1.766-11.508 21.683-26.525 33.313-26.906 33.603-4.414 3.3-5.326 9.552-2.035 13.977a9.984 9.984 0 0 0 8.031 4.033 9.95 9.95 0 0 0 5.96-1.978c1.65-1.227 40.286-30.565 47.003-85.849a45.25 45.25 0 0 0 .563-7.097c0-24.855-20.222-45.077-45.077-45.077zm24.8 48.789c-.011.081-.031.159-.04.24l-.007.048c-1.922 11.932-12.289 21.077-24.754 21.077-13.827 0-25.077-11.25-25.077-25.077S71.185 206 85.012 206s25.077 11.25 25.077 25.077c0 1.261-.096 2.5-.277 3.712zM195.166 186c-24.855 0-45.077 20.222-45.077 45.077s20.222 45.077 45.077 45.077c4.323 0 8.5-.625 12.461-1.766-11.508 21.683-26.525 33.313-26.906 33.603-4.414 3.3-5.326 9.552-2.035 13.977a9.984 9.984 0 0 0 8.031 4.033 9.95 9.95 0 0 0 5.96-1.978c1.65-1.227 40.286-30.565 47.003-85.849a45.25 45.25 0 0 0 .563-7.097c0-24.855-20.222-45.077-45.077-45.077zm24.801 48.789c-.011.081-.031.159-.04.24l-.007.048c-1.922 11.932-12.289 21.077-24.754 21.077-13.827 0-25.077-11.25-25.077-25.077S181.339 206 195.166 206s25.077 11.25 25.077 25.077c0 1.261-.096 2.5-.276 3.712z" fill="#000" opacity="1" data-original="#000" class=""></path></g></svg>