<svg xmlns="http://www.w3.org/2000/svg" width="32.666" height="32.667" viewBox="0 0 32.666 32.667">
  <g id="Group_580" data-name="Group 580" transform="translate(4384.865 2649.702)">
    <g id="Group_579" data-name="Group 579" transform="translate(-4384.865 -2649.702)">
      <path id="Path_335" data-name="Path 335" d="M-4352.684-2634.524h0l-14.7-14.7a1.626,1.626,0,0,0-2.3,0l-14.7,14.7a1.636,1.636,0,0,0,0,2.311l14.7,14.692v.008a1.636,1.636,0,0,0,2.311,0l14.7-14.7A1.629,1.629,0,0,0-4352.684-2634.524Zm-12.585,5.235v-4.083h-6.533v4.9h-3.267v-6.533a1.627,1.627,0,0,1,1.633-1.633h8.167v-4.083l5.717,5.717Z" transform="translate(4384.865 2649.702)" fill="#4fab5e"/>
    </g>
  </g>
</svg>
