<svg xmlns="http://www.w3.org/2000/svg" width="25.585" height="26.216" viewBox="0 0 25.585 26.216">
  <path id="Path_47" data-name="Path 47" d="M2500.028,2594.514q0-4.523,0-9.047a3.983,3.983,0,0,0-4.034-4.038h-17.515a3.983,3.983,0,0,0-4.034,4.038q0,4.523,0,9.047t0,9.075a3.987,3.987,0,0,0,3.987,4.041q2.811.011,5.622.012h1.351c3.063,0,8.663-.006,10.638-.014a3.988,3.988,0,0,0,3.987-4.041Q2500.028,2599.052,2500.028,2594.514Zm-12.239.519a12.188,12.188,0,0,1,1.623.572,3.8,3.8,0,0,1,1.075.69,2.361,2.361,0,0,1,.6.9,3.405,3.405,0,0,1,.187,1.187,3.458,3.458,0,0,1-.435,1.753,2.657,2.657,0,0,1-1.162,1.138,4.685,4.685,0,0,1-1.884.454Zm-9.3,10.815a2.26,2.26,0,0,1-2.3-2.317q0-4.524,0-9.047,0-4.483,0-8.966a2.263,2.263,0,0,1,2.331-2.344l6.817,0h1.371v1.666a6.031,6.031,0,0,0-2.269.448,5.113,5.113,0,0,0-1.66,1.106,4.662,4.662,0,0,0-1.019,1.561,4.856,4.856,0,0,0-.348,1.809,4.22,4.22,0,0,0,1.311,3.276,8.127,8.127,0,0,0,3.96,1.722v6.912a5.286,5.286,0,0,1-.908-.205,4.572,4.572,0,0,1-.839-.36,4.459,4.459,0,0,1-.708-.485,2.59,2.59,0,0,1-.516-.578,4.194,4.194,0,0,1-.354-1.02,8.876,8.876,0,0,1-.193-1.442h-2.1a10.62,10.62,0,0,0,.2,1.871,5.421,5.421,0,0,0,.5,1.461,4.541,4.541,0,0,0,1.908,1.753,7.889,7.889,0,0,0,3.04.8v2.389h-1.3Q2481.948,2605.852,2478.492,2605.849Zm8.191-19.245v5.98a6.757,6.757,0,0,1-1.287-.4,3.6,3.6,0,0,1-.988-.615,2.577,2.577,0,0,1-.634-.852,2.611,2.611,0,0,1-.224-1.106,3.748,3.748,0,0,1,.174-1.038,2.613,2.613,0,0,1,.528-.938,2.866,2.866,0,0,1,.964-.7A4,4,0,0,1,2486.683,2586.6Zm11.6,16.928a2.259,2.259,0,0,1-2.3,2.317l-8.191,0v-2.376a13.731,13.731,0,0,0,1.977-.4,6.241,6.241,0,0,0,1.517-.622,4.751,4.751,0,0,0,1.566-1.884,6.466,6.466,0,0,0,.559-2.8,3.948,3.948,0,0,0-1.653-3.444,6.915,6.915,0,0,0-1.492-.733q-1.007-.386-2.474-.8v-6.154a3.332,3.332,0,0,1,2.176.814,3.214,3.214,0,0,1,.958,2.144H2493a5.221,5.221,0,0,0-.417-1.865,4.374,4.374,0,0,0-1.026-1.448,5.02,5.02,0,0,0-1.6-.989,7.851,7.851,0,0,0-2.163-.485v-1.641h8.164a2.263,2.263,0,0,1,2.33,2.344q0,4.482,0,8.966Q2498.284,2599.008,2498.283,2603.532Z" transform="translate(-2474.444 -2581.428)" fill="#404040"/>
</svg>
