<svg xmlns="http://www.w3.org/2000/svg" version="1.1" xmlns:xlink="http://www.w3.org/1999/xlink" width="512" height="512" x="0" y="0" viewBox="0 0 60 60" style="enable-background:new 0 0 512 512" xml:space="preserve" class=""><g><path fill="#6ac579" d="M59 30a28.987 28.987 0 1 1-8.49-20.51l1.84-1.84a1.39 1.39 0 0 1 2.37.9l.43 6.95a1.383 1.383 0 0 1-1.46 1.47l-6.95-.43a1.394 1.394 0 0 1-.91-2.37l1.84-1.83A24.982 24.982 0 1 0 55 30a2 2 0 0 1 4 0z" opacity="1" data-original="#6ac579"></path><circle cx="30" cy="30" r="17" fill="#e9f2f2" opacity="1" data-original="#e9f2f2"></circle><g fill="#37404f"><path d="M34 33a1 1 0 0 1-.446-.1l-4-2A1 1 0 0 1 29 30v-8a1 1 0 0 1 2 0v7.382l3.447 1.723A1 1 0 0 1 34 33zM30 19a1 1 0 0 1-1-1v-1a1 1 0 0 1 2 0v1a1 1 0 0 1-1 1zM21.515 22.515a1 1 0 0 1-.707-.293l-.707-.707a1 1 0 0 1 1.414-1.415l.707.707a1 1 0 0 1-.707 1.707zM18 31h-1a1 1 0 0 1 0-2h1a1 1 0 0 1 0 2zM20.808 40.192a1 1 0 0 1-.707-1.707l.707-.707a1 1 0 0 1 1.414 1.414l-.707.707a1 1 0 0 1-.707.293zM30 44a1 1 0 0 1-1-1v-1a1 1 0 0 1 2 0v1a1 1 0 0 1-1 1zM39.192 40.192a1 1 0 0 1-.707-.293l-.707-.707a1 1 0 0 1 1.414-1.414l.707.707a1 1 0 0 1-.707 1.707zM43 31h-1a1 1 0 0 1 0-2h1a1 1 0 0 1 0 2zM38.485 22.515a1 1 0 0 1-.707-1.707l.707-.707a1 1 0 0 1 1.415 1.414l-.707.707a1 1 0 0 1-.708.293z" fill="#37404f" opacity="1" data-original="#37404f"></path></g><path fill="#2970e2" d="M30 48a18 18 0 1 1 18-18 18.021 18.021 0 0 1-18 18zm0-34a16 16 0 1 0 16 16 16.019 16.019 0 0 0-16-16z" opacity="1" data-original="#2970e2"></path></g></svg>