<svg xmlns="http://www.w3.org/2000/svg" width="33.457" height="26.145" viewBox="0 0 33.457 26.145">
  <path id="Path_38" data-name="Path 38" d="M1985.794,1534.474a12.371,12.371,0,0,1-1.465-.079,3.016,3.016,0,0,1-2.575-2.759c-.128-1.393-.276-2.807-.419-4.175q-.1-.935-.194-1.869-.031-.3-.06-.6c-.051-.522-.1-1.061-.17-1.592a.782.782,0,0,0-.416-.562,3.057,3.057,0,0,1-1.934-3c0-.417,0-.833,0-1.25q0-.425,0-.849a3.065,3.065,0,0,1,3.123-3.128l1.712,0h1.63c.83,0,1.809,0,2.776-.007a1.662,1.662,0,0,0,.8-.214c2.027-1.175,4.084-2.374,6.074-3.534l3.53-2.056a3.336,3.336,0,0,1,1.669-.467,3.093,3.093,0,0,1,3.014,2.606,2.227,2.227,0,0,1,.024.4q0,.3,0,.6c0,.675.008,1.372-.009,2.055a.805.805,0,0,0,.6.885,4.207,4.207,0,0,1-.052,7.911.723.723,0,0,0-.547.774c.012.642.01,1.3.008,1.931q0,.347,0,.694a3.06,3.06,0,0,1-3.055,3.128h0a3.168,3.168,0,0,1-1.583-.431c-1.181-.674-2.375-1.374-3.529-2.05q-.81-.475-1.622-.949l-.926-.54c-1.194-.7-2.43-1.417-3.649-2.119a1.972,1.972,0,0,0-.467-.176c-.06-.017-.117-.033-.169-.05l-.234-.079-.321.429.409,1.363q.415,1.384.829,2.769c.1.321.2.644.294.957.233.747.473,1.52.652,2.287a3.025,3.025,0,0,1-.537,2.525,3.063,3.063,0,0,1-2.318,1.208C1986.361,1534.468,1986.069,1534.474,1985.794,1534.474Zm-3.241-11.049c.012.143.023.28.033.412.022.272.042.529.068.784q.146,1.445.294,2.889.2,1.961.4,3.922a1.445,1.445,0,0,0,1.511,1.382l.862,0,.777,0a1.523,1.523,0,0,0,1.233-.586,1.443,1.443,0,0,0,.2-1.278c-.695-2.385-1.383-4.68-2.211-7.432a.659.659,0,0,0-.543-.454c-.447-.01-.882-.011-1.25-.011h-1.41Zm17.333-13.536a1.8,1.8,0,0,0-.9.263l-3.283,1.93c-1.972,1.16-4.012,2.359-6.021,3.533a.81.81,0,0,0-.425.776c.009,1.741.008,3.309,0,4.8a.835.835,0,0,0,.454.8c2.921,1.708,5.932,3.479,9.207,5.415a1.846,1.846,0,0,0,.951.3,1.412,1.412,0,0,0,.693-.187,1.6,1.6,0,0,0,.768-1.5c0-1.789,0-3.607,0-5.366,0-.617,0-3.941,0-3.941q0-2.6,0-5.2A1.485,1.485,0,0,0,1999.885,1509.889Zm-15.89,6.335c-.862,0-1.575,0-2.246,0a1.471,1.471,0,0,0-1.59,1.45c-.02.769-.02,1.552,0,2.326a1.425,1.425,0,0,0,1.387,1.426c.739,0,1.548.006,2.547.006h3.543v-5.162l-.314-.026-.079-.007a1.9,1.9,0,0,0-.2-.013h-3.047Zm18.936,5.145.532-.357a2.613,2.613,0,0,0,0-4.456l-.527-.342Zm5.12-5.742a.775.775,0,0,0,.206-.048l.191-.106c.654-.363,1.329-.739,1.966-1.143a.763.763,0,0,0,.21-1.045.822.822,0,0,0-.688-.4.646.646,0,0,0-.3.075c-.674.355-1.379.762-2.155,1.244a.735.735,0,0,0-.287.855.826.826,0,0,0,.738.594Zm1.9,9.105a.809.809,0,0,0,.783-.8.74.74,0,0,0-.342-.664c-.57-.346-1.325-.8-2.1-1.214a.691.691,0,0,0-.331-.082.826.826,0,0,0-.7.4.769.769,0,0,0,.207,1.045c.822.517,1.506.909,2.152,1.235a.719.719,0,0,0,.327.08Zm.149-5.119c.392,0,.785,0,1.169-.012a.775.775,0,0,0,.747-.794.765.765,0,0,0-.743-.8c-.132-.005-.274-.008-.446-.008l-.37,0-.378,0-.342,0v0h-.025l-.361,0c-.167,0-.305,0-.434.006a.8.8,0,0,0-.015,1.592c.4.008.8.012,1.2.012Z" transform="translate(-1978.56 -1508.329)" fill="#404040"/>
</svg>
