<svg xmlns="http://www.w3.org/2000/svg" version="1.1" xmlns:xlink="http://www.w3.org/1999/xlink" width="512" height="512" x="0" y="0" viewBox="0 0 682.667 682.667" style="enable-background:new 0 0 512 512" xml:space="preserve" class=""><g><defs><clipPath id="a" clipPathUnits="userSpaceOnUse"><path d="M0 512h512V0H0Z" fill="#000" opacity="1" data-original="#000"></path></clipPath></defs><g clip-path="url(#a)" transform="matrix(1.33333 0 0 -1.33333 0 682.667)"><path d="M0 0c0 70.692 57.308 128 128 128 70.692 0 128-57.308 128-128 0-70.692-57.308-128-128-128C57.308-128 0-70.692 0 0Z" style="stroke-width:40;stroke-linecap:round;stroke-linejoin:round;stroke-miterlimit:10;stroke-dasharray:none;stroke-opacity:1" transform="translate(128 364)" fill="none" stroke="#000" stroke-width="40" stroke-linecap="round" stroke-linejoin="round" stroke-miterlimit="10" stroke-dasharray="none" stroke-opacity="" data-original="#000"></path><path d="M0 0c23.308-10.357 41.955-22.615 56.089-35.034C77.637-53.966 89.902-81.317 89.902-110v-37c0-22.091-17.908-40-40-40h-392c-22.091 0-40 17.909-40 40v37c0 28.683 12.265 56.034 33.813 74.966C-311.801-2.979-245.262 29-146.098 29" style="stroke-width:40;stroke-linecap:round;stroke-linejoin:miter;stroke-miterlimit:10;stroke-dasharray:none;stroke-opacity:1" transform="translate(402.098 207)" fill="none" stroke="#000" stroke-width="40" stroke-linecap="round" stroke-linejoin="miter" stroke-miterlimit="10" stroke-dasharray="none" stroke-opacity="" data-original="#000"></path></g></g></svg>