<svg xmlns="http://www.w3.org/2000/svg" version="1.1" xmlns:xlink="http://www.w3.org/1999/xlink" width="512" height="512" x="0" y="0" viewBox="0 0 32 32" style="enable-background:new 0 0 512 512" xml:space="preserve" class=""><g transform="matrix(1.1299999999999992,0,0,1.1299999999999992,-2.0799999999999876,-2.0799999999999876)"><g data-name="Layer 2"><path d="M9 28H5a1 1 0 0 1-1-1v-4a1 1 0 0 0-2 0v4a3 3 0 0 0 3 3h4a1 1 0 0 0 0-2zM29 22a1 1 0 0 0-1 1v4a1 1 0 0 1-1 1h-4a1 1 0 0 0 0 2h4a3 3 0 0 0 3-3v-4a1 1 0 0 0-1-1zM3 10a1 1 0 0 0 1-1V5a1 1 0 0 1 1-1h4a1 1 0 0 0 0-2H5a3 3 0 0 0-3 3v4a1 1 0 0 0 1 1zM27 2h-4a1 1 0 0 0 0 2h4a1 1 0 0 1 1 1v4a1 1 0 0 0 2 0V5a3 3 0 0 0-3-3z" fill="#000" opacity="1" data-original="#000" class=""></path><path d="M11 19H8a2 2 0 0 0-2 2v3a2 2 0 0 0 2 2h3a2 2 0 0 0 2-2v-3a2 2 0 0 0-2-2zm-3 5v-3h3v3zM26 24v-3a2 2 0 0 0-2-2h-3a2 2 0 0 0-2 2v3a2 2 0 0 0 2 2h3a2 2 0 0 0 2-2zm-5-3h3v3h-3z" fill="#000" opacity="1" data-original="#000" class=""></path><path d="M15 15H7a1 1 0 0 0 0 2h8v8a1 1 0 0 0 2 0v-8a2 2 0 0 0-2-2zM6 8v4a1 1 0 0 0 2 0V8h4a1 1 0 0 0 0-2H8a2 2 0 0 0-2 2zM21 13h3a2 2 0 0 0 2-2V8a2 2 0 0 0-2-2h-3a2 2 0 0 0-2 2v3a2 2 0 0 0 2 2zm0-5h3v3h-3zM20 17h1a1 1 0 0 0 0-2h-1a1 1 0 0 0 0 2zM24 15a1 1 0 0 0 0 2h1a1 1 0 0 0 0-2zM16 11h-5a1 1 0 0 0 0 2h5a1 1 0 0 0 0-2zM16 6a1 1 0 0 0-1 1v1a1 1 0 0 0 2 0V7a1 1 0 0 0-1-1z" fill="#000" opacity="1" data-original="#000" class=""></path></g></g></svg>