<svg xmlns="http://www.w3.org/2000/svg" version="1.1" xmlns:xlink="http://www.w3.org/1999/xlink" width="512" height="512" x="0" y="0" viewBox="0 0 512 512" style="enable-background:new 0 0 512 512" xml:space="preserve" class=""><g><path d="m378.184 284.419-76.729 44.691c-2.89 1.683-5.818 2.983-8.835 3.911a32.278 32.278 0 0 0 2.255-6.015c4.086-15.252-4.959-31.17-20.593-36.238a8.017 8.017 0 0 0-1.047-.263c-21.955-3.96-43.669-11.81-61.116-18.118-6.084-2.199-11.831-4.277-16.729-5.865-20.1-6.522-38.147 1.484-53.15 10.177l-56.033 32.464-3.534-6.244c-2.532-4.476-6.667-7.7-11.644-9.079-4.976-1.379-10.18-.745-14.655 1.789l-21.527 12.184c-4.476 2.533-7.7 6.667-9.079 11.644-1.379 4.976-.744 10.181 1.789 14.656L90.85 445.948c3.546 6.266 10.094 9.789 16.826 9.788 3.218 0 6.479-.805 9.473-2.499l21.528-12.185c4.475-2.533 7.698-6.667 9.078-11.643 1.379-4.976.744-10.181-1.789-14.655l-7.209-12.738 11.562-6.676 97.799 26.205c5.527 1.481 11.026 2.218 16.436 2.218 10.942 0 21.514-3.013 31.178-8.963l139.246-85.741c13.218-8.138 17.435-28.61 8.846-42.95-4.159-6.944-21.183-27.583-65.64-1.69zM132.337 425.134c-.138.497-.521 1.416-1.54 1.992l-21.528 12.185c-1.554.881-3.614.31-4.494-1.245L41.481 326.23a3.283 3.283 0 0 1-.295-2.501c.138-.497.521-1.415 1.541-1.992l21.528-12.185a3.2 3.2 0 0 1 1.59-.418c.373 0 .69.062.911.124.496.138 1.415.521 1.991 1.539l.001.001 63.294 111.835c.577 1.019.433 2.004.295 2.501zM426.59 315.433l-139.246 85.741c-10.752 6.619-22.556 8.274-35.083 4.915l-101-27.063a8.014 8.014 0 0 0-6.07.799l-14.313 8.264-36.788-65.002 56.173-32.545c12.551-7.272 26.105-13.372 40.192-8.802 4.646 1.506 10.012 3.446 16.226 5.693 17.861 6.458 40.055 14.48 63.128 18.71 7.367 2.619 11.486 9.726 9.612 16.722-1.962 7.322-7.467 10.52-16.352 9.504-11.915-2.398-22.752-5.471-34.087-8.687-5.1-1.446-10.372-2.941-15.922-4.429a8 8 0 1 0-4.141 15.455c5.437 1.457 10.652 2.936 15.696 4.367 11.753 3.333 22.984 6.519 35.557 9.033l.08.016c3.159.63 6.401 1.218 9.759 1.756 14.556 2.331 27.473.057 39.496-6.945l76.729-44.691c21.452-12.494 37.848-13.957 43.861-3.916 4.107 6.856 2.337 17.507-3.507 21.105zM68.65 327.88a7.687 7.687 0 1 1-15.212 2.224 7.687 7.687 0 0 1 15.212-2.224zm35.559-51.9a7.99 7.99 0 0 0 4-1.072l88.209-50.927a7.998 7.998 0 0 0 4-6.928V115.197a7.998 7.998 0 0 0-4-6.928l-88.209-50.927a8 8 0 0 0-8 0L12 108.269a7.998 7.998 0 0 0-4 6.928v101.855a7.998 7.998 0 0 0 4 6.928l88.209 50.927a7.98 7.98 0 0 0 4 1.073zM63.314 133.276l72.209-41.69 9.581 5.532-72.209 41.69zm-8 13.857 9.58 5.531v21.633l-9.58-5.531zm105.79-40.777 15.314 8.842-72.209 41.69-15.314-8.842zm-48.895 147.768v-83.38l72.209-41.69v83.38zm-8-180.617 15.314 8.842-72.209 41.69L32 115.197zM24 129.054l15.314 8.842v35.49a7.998 7.998 0 0 0 4 6.928l25.58 14.769a8 8 0 0 0 12-6.928v-26.252l15.314 8.842v83.38L24 212.434zm479.954 117.269c-3.912-36.559-28.504-66.164-61.445-77.802 12.082-9.346 19.883-23.971 19.883-40.392 0-28.152-22.903-51.055-51.055-51.055s-51.055 22.903-51.055 51.055c0 16.421 7.801 31.046 19.882 40.392-32.941 11.637-57.534 41.243-61.446 77.803a7.997 7.997 0 0 0 7.954 8.851h169.326c2.27 0 4.433-.964 5.95-2.653a7.99 7.99 0 0 0 2.006-6.199zM376.283 128.129c0-19.329 15.726-35.055 35.055-35.055s35.055 15.726 35.055 35.055c0 19.323-15.715 35.044-35.035 35.054h-.041c-19.319-.011-35.034-15.731-35.034-35.054zm-40.19 111.046c7.832-34.754 38.735-59.982 75.224-59.991l.021.001h.021c36.488.01 67.391 25.238 75.223 59.991zm-123.625-40.352a8 8 0 0 1 3.508-6.62l25.025-16.98a8.003 8.003 0 0 1 11.112 2.128 8.002 8.002 0 0 1-2.128 11.112l-3.479 2.36h67.401a8 8 0 0 1 0 16h-67.401l3.479 2.36a8.002 8.002 0 0 1-4.499 14.621 7.96 7.96 0 0 1-4.485-1.381l-25.025-16.98a8 8 0 0 1-3.508-6.62zm0-65.396a8 8 0 0 1 8-8h67.401l-3.478-2.36a8 8 0 0 1 8.984-13.24l25.025 16.98a8.003 8.003 0 0 1 0 13.24l-25.025 16.98a7.994 7.994 0 0 1-11.112-2.128 8.002 8.002 0 0 1 2.128-11.112l3.479-2.361h-67.402a7.999 7.999 0 0 1-8-7.999z" fill="#000" opacity="1" data-original="#000" class=""></path></g></svg>