<svg xmlns="http://www.w3.org/2000/svg" width="29.751" height="30.997" viewBox="0 0 29.751 30.997">
  <path id="Path_37" data-name="Path 37" d="M4822.512,2674.084a5.42,5.42,0,0,1-.273.693c-.748,1.306-1.506,2.608-2.264,3.909a1.115,1.115,0,0,1-1.451.6c-1.006-.257-2.012-.518-3.015-.789a.789.789,0,0,0-.693.132q-1.2.749-2.446,1.406a.784.784,0,0,0-.452.536c-.273,1-.562,2-.845,3a1.064,1.064,0,0,1-1.215.924q-2.283.008-4.566,0a1.053,1.053,0,0,1-1.142-.859c-.292-1.012-.581-2.025-.85-3.043a.816.816,0,0,0-.475-.568q-1.248-.655-2.444-1.406a.749.749,0,0,0-.654-.125c-1,.266-2.011.523-3.017.784a1.134,1.134,0,0,1-1.488-.6q-1.126-1.934-2.242-3.873a1.075,1.075,0,0,1,.208-1.514c.74-.754,1.492-1.5,2.217-2.267a.868.868,0,0,0,.19-.539q.028-1.514,0-3.027a.741.741,0,0,0-.183-.461c-.729-.765-1.478-1.511-2.218-2.266a1.118,1.118,0,0,1-.2-1.556q1.109-1.919,2.225-3.834a1.138,1.138,0,0,1,1.485-.615c1,.262,2.012.521,3.016.787a.754.754,0,0,0,.657-.119c.808-.507,1.637-.983,2.479-1.431a.742.742,0,0,0,.431-.5c.274-1.017.56-2.031.849-3.044a1.091,1.091,0,0,1,1.2-.906q2.261,0,4.523,0a1.083,1.083,0,0,1,1.219.923c.281,1,.567,2,.838,3a.781.781,0,0,0,.452.535c.844.443,1.655.95,2.492,1.409a.946.946,0,0,0,.6.125c1.011-.237,2.014-.511,3.019-.775a1.145,1.145,0,0,1,1.515.623q1.112,1.917,2.224,3.834a1.112,1.112,0,0,1-.191,1.523c-.75.765-1.51,1.52-2.247,2.3a.8.8,0,0,0-.17.5q-.021,1.493,0,2.987a.806.806,0,0,0,.17.5c.746.788,1.524,1.545,2.268,2.335A4.046,4.046,0,0,1,4822.512,2674.084Zm-25.769,3.029c1.066-.278,2.087-.536,3.1-.811a1.265,1.265,0,0,1,1.25.282,9.291,9.291,0,0,0,3.091,1.779,1.379,1.379,0,0,1,.963,1.062c.234.911.511,1.811.75,2.72a.327.327,0,0,0,.38.289c.874-.009,1.747-.013,2.621,0,.265,0,.358-.1.422-.345.233-.9.509-1.782.741-2.679a1.379,1.379,0,0,1,.972-1.054,9,9,0,0,0,3.022-1.731,1.348,1.348,0,0,1,1.359-.311c1.01.284,2.031.531,3.056.795.51-.88,1.014-1.726,1.485-2.589a.507.507,0,0,0-.1-.449c-.676-.718-1.369-1.421-2.067-2.117a1.16,1.16,0,0,1-.331-1.116,10.235,10.235,0,0,0,0-3.655,1.226,1.226,0,0,1,.363-1.186c.693-.682,1.373-1.378,2.044-2.081.087-.091.177-.3.133-.378-.5-.893-1.018-1.772-1.531-2.651-1.05.272-2.058.523-3.06.8a1.332,1.332,0,0,1-1.327-.3,9.174,9.174,0,0,0-3.057-1.754,1.374,1.374,0,0,1-.962-1.062c-.229-.9-.505-1.783-.731-2.682a.364.364,0,0,0-.434-.327c-.86.013-1.72.02-2.579,0-.289-.007-.382.107-.448.365-.227.884-.492,1.758-.717,2.642a1.382,1.382,0,0,1-.963,1.063,9.327,9.327,0,0,0-3.092,1.778,1.292,1.292,0,0,1-1.292.272c-1.012-.281-2.032-.531-3.066-.8-.487.847-.953,1.682-1.447,2.5a.39.39,0,0,0,.089.572c.69.685,1.359,1.391,2.047,2.078a1.155,1.155,0,0,1,.329,1.116,10.037,10.037,0,0,0-.011,3.613,1.287,1.287,0,0,1-.386,1.256q-1.025,1.008-2.011,2.055a.481.481,0,0,0-.117.413C4795.714,2675.365,4796.225,2676.223,4796.743,2677.113Zm17.754-7.856a6.889,6.889,0,1,1-13.77-.468,6.759,6.759,0,0,1,7.227-6.7A6.906,6.906,0,0,1,4814.5,2669.257Zm-6.839-5.081a4.827,4.827,0,1,0,4.769,4.845A4.819,4.819,0,0,0,4807.658,2664.176Z" transform="translate(-4792.761 -2653.504)" fill="#404040"/>
</svg>
