<svg xmlns="http://www.w3.org/2000/svg" width="24" height="24" fill="none" viewBox="0 0 24 24" id="instagram-shop"><path fill="#000" fill-rule="evenodd" d="M3.01725 9.7037C3.17372 7.20029 5.2497 5.25 7.758 5.25H16.2424C18.7507 5.25 20.8267 7.20029 20.9831 9.7037L21.4831 17.7037C21.6541 20.4383 19.4823 22.75 16.7424 22.75H11.5002C11.086 22.75 10.7502 22.4142 10.7502 22C10.7502 21.5858 11.086 21.25 11.5002 21.25H16.7424C18.6171 21.25 20.103 19.6683 19.9861 17.7973L19.4861 9.79727C19.379 8.08441 17.9586 6.75 16.2424 6.75H7.758C6.0418 6.75 4.62139 8.08441 4.51433 9.79727L4.01433 17.7973C3.89739 19.6683 5.38333 21.25 7.258 21.25H7.5002C7.91441 21.25 8.2502 21.5858 8.2502 22C8.2502 22.4142 7.91441 22.75 7.5002 22.75H7.258C4.5181 22.75 2.34634 20.4383 2.51725 17.7037L3.01725 9.7037Z" clip-rule="evenodd"></path><path fill="#000" fill-rule="evenodd" d="M7.25 5C7.25 2.92893 8.92893 1.25 11 1.25H13C15.0711 1.25 16.75 2.92893 16.75 5V6C16.75 6.41421 16.4142 6.75 16 6.75 15.5858 6.75 15.25 6.41421 15.25 6V5C15.25 3.75736 14.2426 2.75 13 2.75H11C9.75736 2.75 8.75 3.75736 8.75 5V6C8.75 6.41421 8.41421 6.75 8 6.75 7.58579 6.75 7.25 6.41421 7.25 6V5zM7.25 10C7.25 12.0711 8.92893 13.75 11 13.75H13C15.0711 13.75 16.75 12.0711 16.75 10V9C16.75 8.58579 16.4142 8.25 16 8.25 15.5858 8.25 15.25 8.58579 15.25 9V10C15.25 11.2426 14.2426 12.25 13 12.25H11C9.75736 12.25 8.75 11.2426 8.75 10V9C8.75 8.58579 8.41421 8.25 8 8.25 7.58579 8.25 7.25 8.58579 7.25 9V10z" clip-rule="evenodd"></path></svg>