<svg xmlns="http://www.w3.org/2000/svg" width="30.452" height="30.456" viewBox="0 0 30.452 30.456">
  <path id="Path_36" data-name="Path 36" d="M1398.68,2015.606a15.226,15.226,0,1,1-15.245-15.221A15.264,15.264,0,0,1,1398.68,2015.606Zm-19.325,2.543a6.883,6.883,0,0,1-2.83-5.128,6.689,6.689,0,0,1,2.082-5.44,6.913,6.913,0,0,1,9.628-.066,6.66,6.66,0,0,1,2.156,4.673,6.911,6.911,0,0,1-2.84,5.971,10.976,10.976,0,0,1,3.891,2.073,7.951,7.951,0,0,1,2.455,3.595,13.3,13.3,0,1,0-20.885-.035C1374.1,2020.781,1376.409,2019.134,1379.354,2018.15Zm4.1,10.792a13.2,13.2,0,0,0,8.663-3.246.458.458,0,0,0,.147-.375,9.763,9.763,0,0,0-.61-1.849,7.006,7.006,0,0,0-3.88-3.213,11.963,11.963,0,0,0-5.725-.7,10.03,10.03,0,0,0-4.663,1.613,5.953,5.953,0,0,0-2.738,4.069.445.445,0,0,0,.151.479A13.31,13.31,0,0,0,1383.452,2028.941Zm-.01-11.376a5.028,5.028,0,1,0-5.021-5.042A5.017,5.017,0,0,0,1383.442,2017.565Z" transform="translate(-1368.228 -2000.385)" fill="#404040"/>
</svg>
